<svg xmlns="http://www.w3.org/2000/svg" viewBox="0 0 150 150" width="150" height="150">
	<style>
		tspan { white-space:pre }
		.shp0 { fill: #000000 } 
	</style>
	<path id="Path 1" fill-rule="evenodd" class="shp0" d="M150 75C149.99 116.42 116.41 150 75 150C33.58 150 0 116.42 0 75C0 33.58 33.58 0 75 0C116.41 0 149.99 33.58 150 75ZM88.58 61.95C89.9 64.86 91.2 67.9 92.5 71.06C97.81 70.12 103.44 69.58 109.45 69.58L109.5 69.58C116.96 69.58 124.96 70.45 133.43 72.25C132.85 59.68 128.27 48.18 120.96 38.88C111.76 49.37 100.41 56.76 88.58 61.95ZM62.56 17.89C67.64 24.38 75.06 35.02 82.75 49.88C93.69 45.18 103.82 38.53 111.48 29.35C101.46 21.31 88.8 16.49 75 16.49C70.73 16.49 66.58 16.99 62.56 17.89ZM18.23 60.83C19.53 60.87 21.09 60.9 22.9 60.9L22.91 60.9C23.21 60.9 23.51 60.9 23.82 60.9C34.58 60.9 52.37 59.67 70.03 54.41C61.34 37.94 53.21 27.39 49.15 22.59C33.94 30.12 22.43 44.03 18.23 60.83ZM30.31 112.65C33.39 107.95 38.66 100.92 46.45 93.81C54.55 86.44 65.5 79.04 79.39 74.39C78.28 71.71 77.16 69.13 76.03 66.64C55.22 73.22 34.68 74.19 22.92 74.28L22.9 74.28C20.32 74.28 18.18 74.22 16.51 74.16C16.5 74.45 16.48 74.73 16.48 75C16.49 89.35 21.7 102.45 30.31 112.65ZM95.77 129.69C92.7 113.62 88.67 99.35 84.21 86.86C71.11 91.14 61.07 98.31 53.81 105.27C46.75 112.04 42.31 118.58 40.23 121.99C49.98 129.21 61.97 133.52 75 133.52C82.32 133.52 89.3 132.15 95.77 129.69ZM132.45 85.71C124.14 83.82 116.46 82.96 109.49 82.96L109.32 82.96C105.1 82.96 101.11 83.26 97.31 83.81C101.41 95.5 105.14 108.6 108.11 123.13C120.61 114.51 129.57 101.19 132.45 85.71Z" />
</svg>