<svg xmlns="http://www.w3.org/2000/svg" viewBox="0 0 87 160" width="87" height="160">
	<style>
		tspan { white-space:pre }
		.shp0 { fill: #000000 } 
	</style>
	<path id="Path 1" class="shp0" d="M83.36 -0.17L62.58 -0.2C39.24 -0.2 24.15 15.27 24.15 39.22L24.15 57.4L3.26 57.4C1.46 57.4 0 58.86 0 60.67L0 87.01C0 88.81 1.46 90.27 3.26 90.27L24.15 90.27L24.15 156.74C24.15 158.54 25.62 160 27.42 160L54.67 160C56.48 160 57.94 158.54 57.94 156.74L57.94 90.27L82.36 90.27C84.17 90.27 85.63 88.81 85.63 87.01L85.64 60.67C85.64 59.8 85.29 58.97 84.68 58.36C84.07 57.75 83.24 57.4 82.37 57.4L57.94 57.4L57.94 41.99C57.94 34.59 59.71 30.82 69.35 30.82L83.35 30.82C85.16 30.82 86.61 29.35 86.61 27.55L86.61 3.1C86.61 1.29 85.16 -0.16 83.36 -0.17Z" />
</svg>