<svg xmlns="http://www.w3.org/2000/svg" viewBox="0 0 27 22" width="27" height="22">
	<style>
		tspan { white-space:pre }
		.shp0 { fill: #000000 } 
	</style>
	<path id="Path 1" class="shp0" d="M26.67 2.9C25.69 3.33 24.63 3.63 23.53 3.76C24.66 3.08 25.52 2.01 25.94 0.73C24.88 1.36 23.71 1.81 22.45 2.06C21.46 1 20.04 0.33 18.46 0.33C15.45 0.33 13 2.78 13 5.8C13 6.23 13.05 6.65 13.14 7.05C8.59 6.82 4.56 4.65 1.86 1.33C1.38 2.14 1.11 3.08 1.11 4.09C1.11 5.98 2.08 7.66 3.55 8.63C2.65 8.61 1.81 8.36 1.07 7.95L1.07 8.02C1.07 10.67 2.96 12.88 5.46 13.39C5 13.51 4.52 13.57 4.02 13.57C3.67 13.57 3.33 13.54 2.99 13.48C3.69 15.65 5.7 17.23 8.1 17.28C6.22 18.74 3.86 19.61 1.3 19.61C0.86 19.61 0.43 19.59 0 19.54C2.43 21.09 5.3 22 8.39 22C18.45 22 23.95 13.66 23.95 6.44L23.93 5.73C25.01 4.96 25.94 4 26.67 2.9Z" />
</svg>